*
%FSLAX33Y33*%
%MOMM*%
%ADD10C,0.120000*%
%ADD11C,0.300000*%
%ADD12C,0.150000*%
%ADD13C,0.200000*%
%IPPOS*%
%LNsst*%
%LPD*%
G54D10*
X22500Y9500D02*
X21750Y8750D01*
X22250Y9000D01*
X22500Y17000D02*
X21750Y17750D01*
X22250Y17500D01*
G54D11*
X29200Y23000D02*
X27500Y22697D01*
X29200Y22350D01*
X27500Y22003D01*
X29200Y21700D01*
X27500Y21248D02*
X29200D01*
X27500Y20252D01*
X29200D01*
Y19410D02*
Y18890D01*
Y19150D02*
X27500D01*
Y19410D02*
Y18890D01*
Y17983D02*
X29200D01*
Y17463D01*
X29115Y17290D01*
X28917Y17160D01*
X28690Y17117D01*
X28463Y17160D01*
X28293Y17268D01*
X28208Y17463D01*
Y17983D01*
X29200Y16600D02*
X27500Y16297D01*
X29200Y15950D01*
X27500Y15603D01*
X29200Y15300D01*
X28067Y14632D02*
Y14068D01*
X28917Y13162D02*
X29087Y13032D01*
X29172Y12880D01*
X29200Y12707D01*
X29143Y12490D01*
X29002Y12338D01*
X28832Y12295D01*
X28662Y12317D01*
X28520Y12403D01*
X28237Y12837D01*
X28038Y13032D01*
X27755Y13162D01*
X27500Y13205D01*
Y12295D01*
X29200Y11150D02*
X29143Y11323D01*
X29002Y11453D01*
X28832Y11540D01*
X28605Y11605D01*
X28350Y11627D01*
X28095Y11605D01*
X27868Y11540D01*
X27698Y11453D01*
X27557Y11323D01*
X27500Y11150D01*
X27557Y10977D01*
X27698Y10847D01*
X27868Y10760D01*
X28095Y10695D01*
X28350Y10673D01*
X28605Y10695D01*
X28832Y10760D01*
X29002Y10847D01*
X29143Y10977D01*
X29200Y11150D01*
X27500Y9550D02*
X29200D01*
X28860Y9810D01*
X27500D02*
Y9290D01*
X27755Y8427D02*
X27613Y8297D01*
X27528Y8145D01*
X27500Y7950D01*
X27557Y7755D01*
X27670Y7603D01*
X27868Y7495D01*
X28095Y7473D01*
X28322Y7517D01*
X28463Y7625D01*
X28577Y7777D01*
X28605Y7928D01*
X28577Y8080D01*
X28463Y8275D01*
X29200Y8210D01*
Y7625D01*
G54D12*
X14750Y9500D02*
Y1875D01*
X3750D01*
Y15500D01*
G54D13*
X3452Y14540D02*
Y14260D01*
Y14400D02*
X2500D01*
Y14540D02*
Y14260D01*
X3373Y13243D02*
X3421Y13313D01*
X3452Y13395D01*
Y13488D01*
X3405Y13593D01*
X3325Y13675D01*
X3230Y13733D01*
X3071Y13780D01*
X2929Y13792D01*
X2786Y13768D01*
X2690Y13733D01*
X2595Y13663D01*
X2532Y13582D01*
X2500Y13500D01*
Y13418D01*
X2532Y13337D01*
X2579Y13267D01*
X2643Y13208D01*
X2500Y12600D02*
X3452D01*
X3262Y12740D01*
X2500D02*
Y12460D01*
G54D10*
X24000Y21000D02*
X22000D01*
Y20000D01*
X24000D01*
Y21000D01*
X23000Y20000D02*
Y21000D01*
G54D13*
X25067Y20500D02*
Y21452D01*
X25358D01*
X25452Y21405D01*
X25510Y21341D01*
X25533Y21214D01*
X25510Y21087D01*
X25440Y21008D01*
X25358Y20960D01*
X25067D01*
X25358D02*
X25533Y20500D01*
X26177D02*
X26200Y20706D01*
X26235Y20881D01*
X26282Y21040D01*
X26340Y21214D01*
X26433Y21452D01*
X25967D01*
G54D10*
X24000Y6000D02*
X22000D01*
Y5000D01*
X24000D01*
Y6000D01*
X23000Y5000D02*
Y6000D01*
G54D13*
X25067Y4500D02*
Y5453D01*
X25358D01*
X25452Y5405D01*
X25510Y5341D01*
X25533Y5214D01*
X25510Y5087D01*
X25440Y5008D01*
X25358Y4960D01*
X25067D01*
X25358D02*
X25533Y4500D01*
X25978Y4897D02*
X26060Y5008D01*
X26130Y5071D01*
X26223Y5103D01*
X26305Y5071D01*
X26363Y5008D01*
X26410Y4913D01*
X26422Y4802D01*
X26410Y4706D01*
X26363Y4611D01*
X26293Y4532D01*
X26212Y4500D01*
X26118Y4532D01*
X26037Y4627D01*
X25990Y4770D01*
X25978Y4929D01*
X26002Y5135D01*
X26037Y5246D01*
X26095Y5357D01*
X26177Y5437D01*
X26258Y5453D01*
X26340Y5421D01*
X26398Y5341D01*
G54D10*
X24000Y20000D02*
X22000D01*
Y19000D01*
X24000D01*
Y20000D01*
X23000Y19000D02*
Y20000D01*
G54D13*
X25067Y18500D02*
Y19453D01*
X25358D01*
X25452Y19405D01*
X25510Y19341D01*
X25533Y19214D01*
X25510Y19087D01*
X25440Y19008D01*
X25358Y18960D01*
X25067D01*
X25358D02*
X25533Y18500D01*
X25943Y18643D02*
X26013Y18563D01*
X26095Y18516D01*
X26200Y18500D01*
X26305Y18532D01*
X26387Y18595D01*
X26445Y18706D01*
X26457Y18833D01*
X26433Y18960D01*
X26375Y19040D01*
X26293Y19103D01*
X26212Y19119D01*
X26130Y19103D01*
X26025Y19040D01*
X26060Y19453D01*
X26375D01*
G54D10*
X24000Y7000D02*
X22000D01*
Y6000D01*
X24000D01*
Y7000D01*
X23000Y6000D02*
Y7000D01*
G54D13*
X25067Y6500D02*
Y7453D01*
X25358D01*
X25452Y7405D01*
X25510Y7341D01*
X25533Y7214D01*
X25510Y7087D01*
X25440Y7008D01*
X25358Y6960D01*
X25067D01*
X25358D02*
X25533Y6500D01*
X26340D02*
Y7453D01*
X25908Y6770D01*
X26492D01*
G54D10*
X24000Y5000D02*
X22000D01*
Y4000D01*
X24000D01*
Y5000D01*
X23000Y4000D02*
Y5000D01*
G54D13*
X25067Y3250D02*
Y4203D01*
X25358D01*
X25452Y4155D01*
X25510Y4091D01*
X25533Y3964D01*
X25510Y3837D01*
X25440Y3758D01*
X25358Y3710D01*
X25067D01*
X25358D02*
X25533Y3250D01*
X25943Y3440D02*
X26013Y3329D01*
X26107Y3266D01*
X26212Y3250D01*
X26305Y3266D01*
X26398Y3345D01*
X26457Y3440D01*
X26468Y3536D01*
X26445Y3647D01*
X26363Y3726D01*
X26282Y3758D01*
X26177D01*
X26282D02*
X26352Y3806D01*
X26410Y3885D01*
X26433Y3980D01*
X26410Y4075D01*
X26352Y4155D01*
X26247Y4203D01*
X26142Y4187D01*
X26037Y4123D01*
G54D10*
X24000Y22000D02*
X22000D01*
Y21000D01*
X24000D01*
Y22000D01*
X23000Y21000D02*
Y22000D01*
G54D13*
X25067Y21750D02*
Y22703D01*
X25358D01*
X25452Y22655D01*
X25510Y22591D01*
X25533Y22464D01*
X25510Y22337D01*
X25440Y22258D01*
X25358Y22210D01*
X25067D01*
X25358D02*
X25533Y21750D01*
X25978Y22544D02*
X26048Y22639D01*
X26130Y22687D01*
X26223Y22703D01*
X26340Y22671D01*
X26422Y22591D01*
X26445Y22496D01*
X26433Y22401D01*
X26387Y22321D01*
X26153Y22163D01*
X26048Y22052D01*
X25978Y21893D01*
X25955Y21750D01*
X26445D01*
G54D10*
X18000Y23000D02*
Y25000D01*
X17000D01*
Y23000D01*
X18000D01*
X17000Y24000D02*
X18000D01*
G54D13*
X15750Y23433D02*
X16702D01*
Y23142D01*
X16655Y23048D01*
X16591Y22990D01*
X16464Y22967D01*
X16337Y22990D01*
X16258Y23060D01*
X16210Y23142D01*
Y23433D01*
Y23142D02*
X15750Y22967D01*
Y22300D02*
X16702D01*
X16512Y22440D01*
X15750D02*
Y22160D01*
G54D10*
X18000Y25000D02*
Y23000D01*
X19000D01*
Y25000D01*
X18000D01*
X19000Y24000D02*
X18000D01*
G54D13*
X20123Y24193D02*
X20171Y24263D01*
X20202Y24345D01*
Y24438D01*
X20155Y24543D01*
X20075Y24625D01*
X19980Y24683D01*
X19821Y24730D01*
X19679Y24742D01*
X19536Y24718D01*
X19440Y24683D01*
X19345Y24613D01*
X19282Y24532D01*
X19250Y24450D01*
Y24368D01*
X19282Y24287D01*
X19329Y24217D01*
X19393Y24158D01*
X19250Y23550D02*
X20202D01*
X20012Y23690D01*
X19250D02*
Y23410D01*
G54D10*
X14250Y16250D02*
Y9750D01*
X14500D01*
X18750Y16250D02*
X16250D01*
X14500D02*
X14250D01*
X16250Y9750D02*
X18750D01*
X20500D02*
X20750D01*
Y16250D01*
X20500D01*
X19150Y13000D02*
X19137Y13203D01*
X19100Y13403D01*
X19038Y13596D01*
X18953Y13781D01*
X18846Y13954D01*
X18719Y14112D01*
X18573Y14253D01*
X18411Y14376D01*
X18235Y14477D01*
X18047Y14557D01*
X17852Y14612D01*
X17651Y14643D01*
X17448Y14649D01*
X17246Y14630D01*
X17047Y14587D01*
X16855Y14519D01*
X16674Y14428D01*
X16504Y14316D01*
X16350Y14183D01*
X16213Y14033D01*
X16096Y13867D01*
X16000Y13688D01*
X15927Y13498D01*
X15878Y13301D01*
X15853Y13099D01*
X15853Y12896D01*
X15879Y12694D01*
X15929Y12497D01*
X16002Y12308D01*
X16099Y12129D01*
X16216Y11963D01*
X16354Y11813D01*
X16508Y11681D01*
X16678Y11569D01*
X16860Y11479D01*
X17052Y11412D01*
X17251Y11369D01*
X17453Y11351D01*
X17656Y11357D01*
X17857Y11389D01*
X18052Y11445D01*
X18239Y11525D01*
X18415Y11627D01*
X18577Y11750D01*
X18722Y11892D01*
X18849Y12050D01*
X18956Y12224D01*
X19040Y12408D01*
X19101Y12602D01*
X19138Y12802D01*
X19150Y13000D01*
G54D13*
X21127Y13445D02*
X21048Y13352D01*
X21000Y13247D01*
Y13153D01*
X21048Y13060D01*
X21127Y12990D01*
X21238Y12955D01*
X21349Y12978D01*
X21444Y13037D01*
X21508Y13142D01*
X21540Y13282D01*
X21603Y13363D01*
X21714Y13398D01*
X21825Y13375D01*
X21905Y13317D01*
X21952Y13235D01*
Y13153D01*
X21921Y13072D01*
X21841Y13002D01*
X21000Y12300D02*
X21952D01*
X21762Y12440D01*
X21000D02*
Y12160D01*
G54D10*
X18125Y9375D02*
Y5625D01*
X19875D01*
Y9375D01*
X18125D01*
X19875Y5625D02*
Y5500D01*
X18125D01*
Y5625D01*
X19850Y5600D02*
X18150D01*
G54D13*
X25202Y11583D02*
X24250D01*
Y11117D01*
Y10217D02*
Y10683D01*
X25202D01*
Y10217D01*
X24742Y10403D02*
Y10683D01*
X24250Y9807D02*
X25202D01*
Y9573D01*
X25155Y9480D01*
X25091Y9410D01*
X24996Y9352D01*
X24885Y9305D01*
X24726Y9293D01*
X24567Y9305D01*
X24456Y9352D01*
X24361Y9410D01*
X24298Y9480D01*
X24250Y9573D01*
Y9807D01*
X24647Y8872D02*
X24758Y8790D01*
X24821Y8720D01*
X24853Y8627D01*
X24821Y8545D01*
X24758Y8487D01*
X24663Y8440D01*
X24552Y8428D01*
X24456Y8440D01*
X24361Y8487D01*
X24282Y8557D01*
X24250Y8638D01*
X24282Y8732D01*
X24377Y8813D01*
X24520Y8860D01*
X24679Y8872D01*
X24885Y8848D01*
X24996Y8813D01*
X25107Y8755D01*
X25187Y8673D01*
X25202Y8592D01*
X25171Y8510D01*
X25091Y8452D01*
X19250Y5257D02*
X20202D01*
Y4813D02*
X19615Y5257D01*
X19250Y4743D02*
X19885Y5058D01*
G54D10*
X19875Y16625D02*
Y20375D01*
X18125D01*
Y16625D01*
X19875D01*
X18125Y20375D02*
Y20500D01*
X19875D01*
Y20375D01*
X18150Y20400D02*
X19850D01*
G54D13*
X25202Y17583D02*
X24250D01*
Y17117D01*
Y16217D02*
Y16683D01*
X25202D01*
Y16217D01*
X24742Y16403D02*
Y16683D01*
X24250Y15807D02*
X25202D01*
Y15573D01*
X25155Y15480D01*
X25091Y15410D01*
X24996Y15352D01*
X24885Y15305D01*
X24726Y15293D01*
X24567Y15305D01*
X24456Y15352D01*
X24361Y15410D01*
X24298Y15480D01*
X24250Y15573D01*
Y15807D01*
X24393Y14907D02*
X24313Y14837D01*
X24266Y14755D01*
X24250Y14650D01*
X24282Y14545D01*
X24345Y14463D01*
X24456Y14405D01*
X24583Y14393D01*
X24710Y14417D01*
X24790Y14475D01*
X24853Y14557D01*
X24869Y14638D01*
X24853Y14720D01*
X24790Y14825D01*
X25202Y14790D01*
Y14475D01*
X19250Y21257D02*
X20202D01*
Y20813D02*
X19615Y21257D01*
X19250Y20743D02*
X19885Y21058D01*
G54D10*
X16375Y9375D02*
Y5625D01*
X18125D01*
Y9375D01*
X16375D01*
X18125Y5625D02*
Y5500D01*
X16375D01*
Y5625D01*
X18100Y5600D02*
X16400D01*
G54D13*
X23702Y11583D02*
X22750D01*
Y11117D01*
Y10217D02*
Y10683D01*
X23702D01*
Y10217D01*
X23242Y10403D02*
Y10683D01*
X22750Y9807D02*
X23702D01*
Y9573D01*
X23655Y9480D01*
X23591Y9410D01*
X23496Y9352D01*
X23385Y9305D01*
X23226Y9293D01*
X23067Y9305D01*
X22956Y9352D01*
X22861Y9410D01*
X22798Y9480D01*
X22750Y9573D01*
Y9807D01*
Y8510D02*
X23702D01*
X23020Y8942D01*
Y8358D01*
X18000Y5257D02*
X18952D01*
Y4813D02*
X18365Y5257D01*
X18000Y4743D02*
X18635Y5058D01*
G54D10*
X18125Y16625D02*
Y20375D01*
X16375D01*
Y16625D01*
X18125D01*
X16375Y20375D02*
Y20500D01*
X18125D01*
Y20375D01*
X16400Y20400D02*
X18100D01*
G54D13*
X23702Y17583D02*
X22750D01*
Y17117D01*
Y16217D02*
Y16683D01*
X23702D01*
Y16217D01*
X23242Y16403D02*
Y16683D01*
X22750Y15807D02*
X23702D01*
Y15573D01*
X23655Y15480D01*
X23591Y15410D01*
X23496Y15352D01*
X23385Y15305D01*
X23226Y15293D01*
X23067Y15305D01*
X22956Y15352D01*
X22861Y15410D01*
X22798Y15480D01*
X22750Y15573D01*
Y15807D01*
X22940Y14907D02*
X22829Y14837D01*
X22766Y14743D01*
X22750Y14638D01*
X22766Y14545D01*
X22845Y14452D01*
X22940Y14393D01*
X23036Y14382D01*
X23147Y14405D01*
X23226Y14487D01*
X23258Y14568D01*
Y14673D01*
Y14568D02*
X23306Y14498D01*
X23385Y14440D01*
X23480Y14417D01*
X23575Y14440D01*
X23655Y14498D01*
X23702Y14603D01*
X23687Y14708D01*
X23623Y14813D01*
X18000Y21257D02*
X18952D01*
Y20813D02*
X18365Y21257D01*
X18000Y20743D02*
X18635Y21058D01*
G54D10*
X19875Y9375D02*
Y5625D01*
X21625D01*
Y9375D01*
X19875D01*
X21625Y5625D02*
Y5500D01*
X19875D01*
Y5625D01*
X21600Y5600D02*
X19900D01*
G54D13*
X26703Y11583D02*
X25750D01*
Y11117D01*
Y10217D02*
Y10683D01*
X26703D01*
Y10217D01*
X26242Y10403D02*
Y10683D01*
X25750Y9807D02*
X26703D01*
Y9573D01*
X26655Y9480D01*
X26591Y9410D01*
X26496Y9352D01*
X26385Y9305D01*
X26226Y9293D01*
X26067Y9305D01*
X25956Y9352D01*
X25861Y9410D01*
X25798Y9480D01*
X25750Y9573D01*
Y9807D01*
X26544Y8872D02*
X26639Y8802D01*
X26687Y8720D01*
X26703Y8627D01*
X26671Y8510D01*
X26591Y8428D01*
X26496Y8405D01*
X26401Y8417D01*
X26321Y8463D01*
X26163Y8697D01*
X26052Y8802D01*
X25893Y8872D01*
X25750Y8895D01*
Y8405D01*
X20500Y5257D02*
X21452D01*
Y4813D02*
X20865Y5257D01*
X20500Y4743D02*
X21135Y5058D01*
G54D10*
X21625Y16625D02*
Y20375D01*
X19875D01*
Y16625D01*
X21625D01*
X19875Y20375D02*
Y20500D01*
X21625D01*
Y20375D01*
X19900Y20400D02*
X21600D01*
G54D13*
X26703Y17583D02*
X25750D01*
Y17117D01*
Y16217D02*
Y16683D01*
X26703D01*
Y16217D01*
X26242Y16403D02*
Y16683D01*
X25750Y15807D02*
X26703D01*
Y15573D01*
X26655Y15480D01*
X26591Y15410D01*
X26496Y15352D01*
X26385Y15305D01*
X26226Y15293D01*
X26067Y15305D01*
X25956Y15352D01*
X25861Y15410D01*
X25798Y15480D01*
X25750Y15573D01*
Y15807D01*
Y14650D02*
X26703D01*
X26512Y14790D01*
X25750D02*
Y14510D01*
X20500Y21257D02*
X21452D01*
Y20813D02*
X20865Y21257D01*
X20500Y20743D02*
X21135Y21058D01*
M02*
