*
%FSLAX33Y33*%
%MOMM*%
%ADD10C,0.050800*%
%ADD11R,2.489200X2.489200*%
%ADD12R,0.050800X0.050800*%
%ADD13R,0.152400X0.152400*%
%ADD14C,0.152400*%
%ADD15C,0.127000*%
%ADD16C,0.076200*%
%ADD17C,0.025400*%
%ADD18C,0.025000*%
%ADD19C,0.101600*%
%ADD20R,0.482600X0.482600*%
%ADD21R,0.736600X0.736600*%
%ADD22C,0.406400*%
%ADD23C,0.381000*%
%ADD24C,0.279400*%
%ADD25C,0.533400*%
%ADD26C,0.508000*%
%ADD27C,0.355600*%
%ADD28R,1.397000X1.397000*%
%ADD29C,1.397000*%
%ADD30C,1.092200*%
%ADD31R,5.080000X5.080000*%
%ADD32R,4.470400X4.470400*%
%ADD33R,0.406400X0.406400*%
%ADD34C,0.304800*%
%ADD35R,0.990600X0.990600*%
%ADD36C,0.600000*%
%ADD37C,1.400000*%
%ADD38C,0.500000*%
%ADD39C,0.120000*%
%IPPOS*%
%LNbottom*%
%LPD*%
G54D10*
X5025Y16761D02*
Y20739D01*
X7011Y22725D01*
X12989D01*
X13989Y21725D01*
X24489D01*
X25225Y20989D01*
Y19489D01*
X25475Y19239D01*
Y6761D01*
X25225Y6511D01*
Y5489D01*
X25489Y5225D01*
X28511D01*
X28775Y5489D01*
Y6511D01*
X28525Y6761D01*
Y9739D01*
X28761Y9975D01*
X30739D01*
X30975Y9739D01*
Y4510D01*
X27489Y775D01*
X14761D01*
X14525Y1011D01*
Y16261D01*
X14261Y16525D01*
X5261D01*
X5025Y16761D01*
X15975Y3725D02*
X16775D01*
Y4525D01*
X15975D01*
Y3725D01*
Y5225D02*
X16775D01*
Y6025D01*
X15975D01*
Y5225D01*
Y19975D02*
X16775D01*
Y20775D01*
X15975D01*
Y19975D01*
X17225Y3725D02*
X18025D01*
Y4525D01*
X17225D01*
Y3725D01*
Y5225D02*
X18025D01*
Y6025D01*
X17225D01*
Y5225D01*
Y19975D02*
X18025D01*
Y20775D01*
X17225D01*
Y19975D01*
X5076Y16750D02*
X25449D01*
X5076Y20750D02*
X15949D01*
X6076Y21750D02*
X13924D01*
X5326Y21000D02*
X25174D01*
X5051Y19500D02*
X25199D01*
X5051Y19250D02*
X25424D01*
X14551Y6750D02*
X25424D01*
X14551Y6500D02*
X25199D01*
X18051Y5500D02*
X25199D01*
X28576Y5250D02*
X30949D01*
X28801Y5500D02*
X30949D01*
X28801Y6500D02*
X30949D01*
X28576Y6750D02*
X30949D01*
X28576Y9750D02*
X30924D01*
X14576Y1000D02*
X27683D01*
X14551Y16250D02*
X25449D01*
X14326Y16500D02*
X25449D01*
X5051Y20000D02*
X15949D01*
X16801D02*
X17199D01*
X16801Y20750D02*
X17199D01*
X18051Y20000D02*
X25199D01*
X18051Y20750D02*
X25199D01*
X14551Y3750D02*
X15949D01*
X16801D02*
X17199D01*
X16801Y4500D02*
X17199D01*
X14551D02*
X15949D01*
X14551Y5250D02*
X15949D01*
X16801D02*
X17199D01*
X16801Y6000D02*
X17199D01*
X14551D02*
X15949D01*
X18051Y5250D02*
X25424D01*
X18051Y6000D02*
X25199D01*
X18051Y3750D02*
X30249D01*
X18051Y4500D02*
X30949D01*
G54D11*
X6245Y17995D02*
X24255D01*
G54D12*
X5025Y19225D02*
X25475D01*
G54D13*
X25424Y16576D02*
Y16674D01*
G54D14*
X5282Y16576D02*
X25424D01*
G54D15*
X5153Y16686D02*
X25437D01*
X5153Y16687D02*
X25437D01*
X5276Y16563D02*
X25437D01*
X5153Y16687D02*
X5276Y16563D01*
G54D16*
X5092Y16712D02*
X25462D01*
X5266Y16538D02*
X25462D01*
X5092Y16712D02*
X5266Y16538D01*
G54D17*
X5031Y16737D02*
X25487D01*
X5255Y16513D02*
X25487D01*
X5031Y16737D02*
X5255Y16513D01*
G54D18*
X5030Y16737D02*
X25487D01*
X5030D02*
X5255Y16513D01*
G54D13*
X5076Y19326D02*
Y19424D01*
G54D14*
Y19326D02*
X25316D01*
G54D15*
X5064Y19436D02*
X25224D01*
G54D19*
X5051Y19449D02*
X25229D01*
X25214Y19464D02*
X25377Y19301D01*
X5051D02*
X25377D01*
G54D10*
X25232Y19482D02*
X25439Y19275D01*
X5025D02*
X25439D01*
G54D18*
X25241Y19491D02*
X25470Y19263D01*
X5013D02*
X25470D01*
G54D20*
X5241Y19741D02*
X25009D01*
G54D12*
X5025Y19975D02*
X25225D01*
G54D21*
X5368Y20368D02*
X15632D01*
G54D12*
X5025Y20725D02*
X15975D01*
G54D13*
X25174Y20826D02*
Y20924D01*
G54D14*
X5184Y20826D02*
X25174D01*
G54D15*
X5276Y20936D02*
X25187D01*
G54D19*
X5123Y20801D02*
X5286Y20964D01*
X5271Y20949D02*
X25199D01*
X5123Y20801D02*
X25199D01*
G54D10*
X5061Y20775D02*
X5268Y20982D01*
X5061Y20775D02*
X25225D01*
G54D18*
X5030Y20763D02*
X5259Y20991D01*
X5030Y20763D02*
X25237D01*
G54D22*
X5741Y21203D02*
X24759D01*
G54D23*
X6079Y21559D02*
X24421D01*
G54D24*
X5349Y20901D02*
X6099Y21651D01*
X6058Y21610D02*
X24442D01*
X24913Y21140D01*
X5587D02*
X24913D01*
G54D19*
X6021Y21699D02*
X24479D01*
X25127Y21051D01*
X5373D02*
X25127D01*
G54D10*
X6011Y21725D02*
X24489D01*
X25189Y21025D01*
X5311D02*
X25189D01*
G54D18*
X24495Y21738D02*
X25220Y21013D01*
X5280D02*
X25220D01*
G54D25*
X6644Y22017D02*
X13356D01*
G54D26*
X7105Y22496D02*
X12895D01*
G54D27*
X6126Y21624D02*
X7074Y22572D01*
X12926D01*
X13874Y21624D01*
X6429Y21928D02*
X13571D01*
G54D15*
X6045Y21705D02*
X7026Y22687D01*
X12974D01*
X13955Y21705D01*
G54D16*
X6027Y21723D02*
X7016Y22712D01*
X12984D01*
X13973Y21723D01*
G54D17*
X6009Y21741D02*
X7005Y22737D01*
X12995D01*
X13991Y21741D01*
G54D13*
X25424Y16326D02*
Y16424D01*
G54D14*
X14532Y16326D02*
X25424D01*
G54D15*
X14403Y16436D02*
X25437D01*
X14403Y16437D02*
X25437D01*
X14526Y16314D02*
X25437D01*
X14295Y16545D02*
X14545Y16295D01*
G54D28*
X15199Y1699D02*
Y3052D01*
G54D29*
Y1699D02*
X27430D01*
X15199Y3051D02*
X28693D01*
G54D30*
X15046Y3204D02*
X29043D01*
X27334Y1373D02*
X29901Y4123D01*
X15046Y1546D02*
X27496D01*
G54D14*
X14782Y826D02*
X27467D01*
G54D15*
X14653Y936D02*
X27587D01*
X14653Y937D02*
X27587D01*
X27472Y814D02*
X27687Y1043D01*
X14776Y814D02*
X27472D01*
X14653Y937D02*
X14776Y814D01*
G54D16*
X14592Y962D02*
X27646D01*
X27483Y788D02*
X27705Y1026D01*
X14766Y788D02*
X27483D01*
X14592Y962D02*
X14766Y788D01*
G54D17*
X14531Y987D02*
X27704D01*
X27494Y763D02*
X27724Y1009D01*
X14755Y763D02*
X27494D01*
X14531Y987D02*
X14755Y763D01*
G54D18*
X14530Y987D02*
X27705D01*
X14530D02*
X14755Y763D01*
G54D21*
X14868Y4118D02*
X15632D01*
G54D12*
X14525Y4475D02*
X15975D01*
G54D21*
X14868Y4868D02*
X30632D01*
G54D12*
X14525Y5225D02*
X30975D01*
G54D21*
X14868Y5618D02*
X15632D01*
G54D12*
X14525Y5975D02*
X15975D01*
G54D20*
X14741Y6241D02*
X25009D01*
G54D12*
X14525Y6475D02*
X25225D01*
G54D13*
X14576Y6576D02*
Y6674D01*
G54D14*
Y6576D02*
X25218D01*
G54D15*
X14564Y6686D02*
X25347D01*
X14564Y6686D02*
X25347D01*
X25205Y6545D02*
X25347Y6686D01*
X14564Y6563D02*
X25224D01*
G54D16*
X14538Y6712D02*
X25408D01*
X25223Y6527D02*
X25408Y6712D01*
G54D17*
X14513Y6737D02*
X25469D01*
X25241Y6509D02*
X25469Y6737D01*
G54D18*
X14513Y6737D02*
X25470D01*
X25241Y6509D02*
X25470Y6737D01*
G54D31*
X17040Y9290D02*
X22960D01*
G54D32*
X16735Y14015D02*
X23265D01*
G54D20*
X16991Y3991D02*
Y4259D01*
G54D12*
X17225Y3775D02*
Y4475D01*
G54D20*
X16991Y5491D02*
Y5759D01*
G54D12*
X17225Y5275D02*
Y5975D01*
G54D20*
X16991Y20241D02*
Y20509D01*
G54D12*
X17225Y20025D02*
Y20725D01*
G54D33*
X18203Y3953D02*
Y4297D01*
G54D22*
Y3953D02*
X30212D01*
G54D23*
X18191Y4309D02*
X30562D01*
G54D34*
X18152Y4348D02*
X30649D01*
X30189Y3854D02*
X30649Y4348D01*
X18152Y3902D02*
X30234D01*
G54D15*
X18064Y4437D02*
X30854D01*
X30254Y3793D02*
X30854Y4437D01*
G54D16*
X18038Y4462D02*
X30912D01*
X30272Y3776D02*
X30912Y4462D01*
G54D17*
X18013Y4487D02*
X30971D01*
X30291Y3759D02*
X30971Y4487D01*
G54D18*
X18013Y4488D02*
X30971D01*
X30291Y3759D02*
X30971Y4488D01*
G54D13*
X18076Y5326D02*
Y5424D01*
G54D14*
Y5326D02*
X25316D01*
G54D15*
X18064Y5436D02*
X25224D01*
G54D19*
X18051Y5449D02*
X25229D01*
X25214Y5464D02*
X25464Y5214D01*
X18051Y5301D02*
X25377D01*
G54D20*
X18241Y5741D02*
X25009D01*
G54D12*
X18025Y5975D02*
X25225D01*
G54D21*
X18368Y20368D02*
X24882D01*
G54D12*
X18025Y20725D02*
X25225D01*
G54D13*
X30924Y5326D02*
Y5424D01*
G54D14*
X28684Y5326D02*
X30924D01*
G54D15*
X28776Y5436D02*
X30937D01*
G54D19*
X28536Y5214D02*
X28786Y5464D01*
X28771Y5449D02*
X30949D01*
X28623Y5301D02*
X30949D01*
G54D11*
X29745Y7995D02*
Y8505D01*
G54D12*
X30975Y6775D02*
Y9725D01*
G54D13*
X30924Y6576D02*
Y6674D01*
G54D14*
X28782Y6576D02*
X30924D01*
G54D15*
X28653Y6686D02*
X30937D01*
X28653Y6686D02*
X30937D01*
X28776Y6563D02*
X30937D01*
X28653Y6686D02*
X28795Y6545D01*
G54D16*
X28592Y6712D02*
X30962D01*
X28592D02*
X28777Y6527D01*
G54D17*
X28531Y6737D02*
X30987D01*
X28531D02*
X28759Y6509D01*
G54D18*
X28530Y6737D02*
X30987D01*
X28530D02*
X28759Y6509D01*
G54D14*
X28684Y9826D02*
X30816D01*
G54D15*
X28776Y9936D02*
X30724D01*
G54D19*
X28623Y9801D02*
X28771Y9949D01*
X30729D01*
X30877Y9801D01*
X28623D02*
X30877D01*
G54D10*
X28561Y9775D02*
X28761Y9975D01*
X30739D01*
X30939Y9775D01*
X28561D02*
X30939D01*
G54D18*
X28530Y9763D02*
X28755Y9987D01*
X30745D02*
X30970Y9763D01*
X28530D02*
X30970D01*
G54D35*
X29245Y5995D02*
X30505D01*
G54D12*
X28775Y6475D02*
X30975D01*
G54D36*
X24500Y19500D03*
Y20500D03*
Y21500D03*
Y4500D03*
Y5500D03*
Y6500D03*
X9500Y22000D03*
X12500Y18750D03*
X25000Y14000D03*
Y11000D03*
X23000D03*
Y14000D03*
X21000D03*
Y11000D03*
X30000Y9000D03*
Y7000D03*
Y4000D03*
X27000D03*
Y1250D03*
X24000D03*
Y3000D03*
X21000D03*
Y1250D03*
X18000D03*
Y3000D03*
X15000D03*
Y1250D03*
Y5000D03*
Y7000D03*
Y9000D03*
G54D37*
X17000Y21150D03*
Y4850D03*
G54D38*
X16000Y24000D02*
X26500D01*
X27000Y23500D01*
G54D36*
X16000Y24000D03*
X27000Y23500D03*
G54D37*
X30000Y14600D03*
Y11400D03*
G54D36*
X28500Y23500D03*
X28750Y15250D03*
G54D38*
X29250Y15750D01*
Y22750D01*
X28500Y23500D01*
G54D39*
X28000Y20000D02*
Y6000D01*
G54D36*
X3000Y20750D03*
X28000Y20000D03*
Y6000D03*
G54D39*
X3000Y20750D02*
Y21000D01*
X6250Y24250D01*
X14000D01*
X15000Y23250D01*
X25500D01*
X28000Y20750D01*
Y20000D01*
X27000Y6000D02*
Y20000D01*
G54D36*
X3000Y18750D03*
X27000Y20000D03*
Y6000D03*
G54D39*
Y20000D02*
Y21000D01*
X25250Y22750D01*
X14750D01*
X13750Y23750D01*
X6500D01*
X4000Y21250D01*
Y19750D01*
X3000Y18750D01*
X26000Y20000D02*
Y6000D01*
G54D36*
X3000Y16000D03*
X26000Y20000D03*
Y6000D03*
G54D39*
Y20000D02*
Y21250D01*
X25000Y22250D01*
X14500D01*
X13500Y23250D01*
X6750D01*
X4500Y21000D01*
Y17500D01*
X3000Y16000D01*
M02*
